<svg xmlns="http://www.w3.org/2000/svg" width="1400" height="1650" viewBox="0 0 1400 1650"><defs><style>
.h{font:700 28px Arial,sans-serif;fill:#111}.b{font:700 18px Arial,sans-serif;fill:#111}.s{font:16px Arial,sans-serif;fill:#111}.sm{font:14px Arial,sans-serif;fill:#111}
.toothP{fill:#f0d4ef;stroke:#8c5c8d;stroke-width:1.5}.toothQ{fill:#ffe7b0;stroke:#d39a31;stroke-width:1.5}
.line{stroke:#333;stroke-width:1.8;fill:none}.lab{font:17px Arial,sans-serif;fill:#111}
</style></defs><rect width="1400" height="1650" fill="white"/>
<text x="700" y="55" class="h" text-anchor="middle">Modelet normale të daljes së dhëmbëve të qumështit dhe të përhershëm</text>
<text x="330" y="105" class="s" text-anchor="middle">Ana e djathtë e pacientit</text><text x="1070" y="105" class="s" text-anchor="middle">Ana e majtë e pacientit</text>
<text x="230" y="155" class="b" text-anchor="middle">Mosha e daljes së</text><text x="230" y="180" class="b" text-anchor="middle">dhëmbëve të qumështit</text>
<text x="1120" y="155" class="b" text-anchor="middle">Mosha e daljes së</text><text x="1120" y="180" class="b" text-anchor="middle">dhëmbëve të përhershëm</text><ellipse cx="440" cy="350" rx="20" ry="27" class="toothQ"/><path d="M428 350 Q440 331.1 452 350" class="line"/><text x="440" y="355" class="sm" text-anchor="middle"></text><ellipse cx="480" cy="320" rx="20" ry="27" class="toothQ"/><path d="M468 320 Q480 301.1 492 320" class="line"/><text x="480" y="325" class="sm" text-anchor="middle"></text><ellipse cx="525" cy="300" rx="20" ry="27" class="toothQ"/><path d="M513 300 Q525 281.1 537 300" class="line"/><text x="525" y="305" class="sm" text-anchor="middle"></text><ellipse cx="575" cy="285" rx="20" ry="27" class="toothQ"/><path d="M563 285 Q575 266.1 587 285" class="line"/><text x="575" y="290" class="sm" text-anchor="middle"></text><ellipse cx="625" cy="275" rx="20" ry="27" class="toothQ"/><path d="M613 275 Q625 256.1 637 275" class="line"/><text x="625" y="280" class="sm" text-anchor="middle"></text><ellipse cx="775" cy="275" rx="20" ry="27" class="toothP"/><path d="M763 275 Q775 256.1 787 275" class="line"/><text x="775" y="280" class="sm" text-anchor="middle"></text><ellipse cx="825" cy="285" rx="20" ry="27" class="toothP"/><path d="M813 285 Q825 266.1 837 285" class="line"/><text x="825" y="290" class="sm" text-anchor="middle"></text><ellipse cx="875" cy="300" rx="20" ry="27" class="toothP"/><path d="M863 300 Q875 281.1 887 300" class="line"/><text x="875" y="305" class="sm" text-anchor="middle"></text><ellipse cx="920" cy="320" rx="20" ry="27" class="toothP"/><path d="M908 320 Q920 301.1 932 320" class="line"/><text x="920" y="325" class="sm" text-anchor="middle"></text><ellipse cx="960" cy="350" rx="20" ry="27" class="toothP"/><path d="M948 350 Q960 331.1 972 350" class="line"/><text x="960" y="355" class="sm" text-anchor="middle"></text><ellipse cx="990" cy="390" rx="20" ry="27" class="toothP"/><path d="M978 390 Q990 371.1 1002 390" class="line"/><text x="990" y="395" class="sm" text-anchor="middle"></text><ellipse cx="1010" cy="440" rx="20" ry="27" class="toothP"/><path d="M998 440 Q1010 421.1 1022 440" class="line"/><text x="1010" y="445" class="sm" text-anchor="middle"></text><ellipse cx="440" cy="970" rx="20" ry="27" class="toothQ"/><path d="M428 970 Q440 951.1 452 970" class="line"/><text x="440" y="975" class="sm" text-anchor="middle"></text><ellipse cx="480" cy="1010" rx="20" ry="27" class="toothQ"/><path d="M468 1010 Q480 991.1 492 1010" class="line"/><text x="480" y="1015" class="sm" text-anchor="middle"></text><ellipse cx="525" cy="1040" rx="20" ry="27" class="toothQ"/><path d="M513 1040 Q525 1021.1 537 1040" class="line"/><text x="525" y="1045" class="sm" text-anchor="middle"></text><ellipse cx="575" cy="1060" rx="20" ry="27" class="toothQ"/><path d="M563 1060 Q575 1041.1 587 1060" class="line"/><text x="575" y="1065" class="sm" text-anchor="middle"></text><ellipse cx="625" cy="1070" rx="20" ry="27" class="toothQ"/><path d="M613 1070 Q625 1051.1 637 1070" class="line"/><text x="625" y="1075" class="sm" text-anchor="middle"></text><ellipse cx="775" cy="1070" rx="20" ry="27" class="toothP"/><path d="M763 1070 Q775 1051.1 787 1070" class="line"/><text x="775" y="1075" class="sm" text-anchor="middle"></text><ellipse cx="825" cy="1060" rx="20" ry="27" class="toothP"/><path d="M813 1060 Q825 1041.1 837 1060" class="line"/><text x="825" y="1065" class="sm" text-anchor="middle"></text><ellipse cx="875" cy="1040" rx="20" ry="27" class="toothP"/><path d="M863 1040 Q875 1021.1 887 1040" class="line"/><text x="875" y="1045" class="sm" text-anchor="middle"></text><ellipse cx="920" cy="1010" rx="20" ry="27" class="toothP"/><path d="M908 1010 Q920 991.1 932 1010" class="line"/><text x="920" y="1015" class="sm" text-anchor="middle"></text><ellipse cx="960" cy="970" rx="20" ry="27" class="toothP"/><path d="M948 970 Q960 951.1 972 970" class="line"/><text x="960" y="975" class="sm" text-anchor="middle"></text><ellipse cx="990" cy="920" rx="20" ry="27" class="toothP"/><path d="M978 920 Q990 901.1 1002 920" class="line"/><text x="990" y="925" class="sm" text-anchor="middle"></text><ellipse cx="1010" cy="870" rx="20" ry="27" class="toothP"/><path d="M998 870 Q1010 851.1 1022 870" class="line"/><text x="1010" y="875" class="sm" text-anchor="middle"></text><text x="250" y="260" class="s" text-anchor="end">8–12 muaj</text><path d="M270 255 L415 350" class="line"/><text x="250" y="320" class="s" text-anchor="end">9–11 muaj</text><path d="M270 315 L455 320" class="line"/><text x="250" y="380" class="s" text-anchor="end">16–22 muaj</text><path d="M270 375 L500 300" class="line"/><text x="250" y="440" class="s" text-anchor="end">13–19 muaj</text><path d="M270 435 L550 285" class="line"/><text x="250" y="500" class="s" text-anchor="end">25–33 muaj</text><path d="M270 495 L600 275" class="line"/><text x="1130" y="240" class="s">7–8 vjeç</text><path d="M1110 235 L800 275" class="line"/><text x="1130" y="298" class="s">8–9 vjeç</text><path d="M1110 293 L850 285" class="line"/><text x="1130" y="356" class="s">11–12 vjeç</text><path d="M1110 351 L900 300" class="line"/><text x="1130" y="414" class="s">10–11 vjeç</text><path d="M1110 409 L945 320" class="line"/><text x="1130" y="472" class="s">10–12 vjeç</text><path d="M1110 467 L985 350" class="line"/><text x="1130" y="530" class="s">6–7 vjeç</text><path d="M1110 525 L1015 390" class="line"/><text x="1130" y="588" class="s">12–13 vjeç</text><path d="M1110 583 L1035 440" class="line"/><text x="250" y="850" class="s" text-anchor="end">23–31 muaj</text><path d="M270 845 L415 970" class="line"/><text x="250" y="910" class="s" text-anchor="end">14–18 muaj</text><path d="M270 905 L455 1010" class="line"/><text x="250" y="970" class="s" text-anchor="end">17–23 muaj</text><path d="M270 965 L500 1040" class="line"/><text x="250" y="1030" class="s" text-anchor="end">10–16 muaj</text><path d="M270 1025 L550 1060" class="line"/><text x="250" y="1090" class="s" text-anchor="end">6–10 muaj</text><path d="M270 1085 L600 1070" class="line"/><text x="1130" y="820" class="s">11–13 vjeç</text><path d="M1110 815 L800 1070" class="line"/><text x="1130" y="878" class="s">6–7 vjeç</text><path d="M1110 873 L850 1060" class="line"/><text x="1130" y="936" class="s">11–12 vjeç</text><path d="M1110 931 L900 1040" class="line"/><text x="1130" y="994" class="s">10–12 vjeç</text><path d="M1110 989 L945 1010" class="line"/><text x="1130" y="1052" class="s">9–10 vjeç</text><path d="M1110 1047 L985 970" class="line"/><text x="1130" y="1110" class="s">7–8 vjeç</text><path d="M1110 1105 L1015 920" class="line"/><text x="1130" y="1168" class="s">6–7 vjeç</text><path d="M1110 1163 L1035 870" class="line"/><path d="M430 560 Q700 710 1015 560" class="line"/><path d="M430 780 Q700 630 1015 780" class="line"/>
<text x="700" y="1385" class="sm" text-anchor="middle">Moshat dhe renditja janë ruajtur sipas figurës së burimit.</text>
<text x="700" y="1420" class="sm" text-anchor="middle">Figura e rikrijuar në shqip sipas Figurës 152-2 të Tintinalli, botimi 8.</text></svg>