<svg xmlns="http://www.w3.org/2000/svg" width="1200" height="980" viewBox="0 0 1200 980"><defs><marker id="a" markerWidth="8" markerHeight="8" refX="7" refY="4" orient="auto"><path d="M0,0 L8,4 L0,8 z" fill="#222"/></marker></defs><rect width="100%" height="100%" fill="white"/><style>.b{fill:#faf7f3;stroke:#555;stroke-width:1.5}.p{fill:#f4eef8;stroke:#555;stroke-width:1.5}.g{fill:#eaf5ea;stroke:#555;stroke-width:1.5}.t{font-family:Arial,sans-serif;font-size:16px;fill:#111}.s{font-family:Arial,sans-serif;font-size:14px;fill:#111}.h{font-family:Arial,sans-serif;font-size:21px;font-weight:700;fill:#111}.l{stroke:#222;stroke-width:2;fill:none;marker-end:url(#a)}</style><text class="h" x="600" y="32" text-anchor="middle">Algoritmi diagnostik për emboli pulmonare (EP)</text><rect class="b" x="430" y="70" width="340" height="75" rx="5"/><text class="t" x="600.0" y="93" text-anchor="middle">Vlerëso probabilitetin para-test</text><text class="t" x="600.0" y="111" text-anchor="middle">me gjykim klinik</text><rect class="b" x="90" y="180" width="180" height="55" rx="5"/><text class="t" x="180.0" y="203" text-anchor="middle">&lt;15%</text><rect class="b" x="510" y="180" width="180" height="55" rx="5"/><text class="t" x="600.0" y="203" text-anchor="middle">15–40%</text><rect class="b" x="930" y="180" width="180" height="55" rx="5"/><text class="t" x="1020.0" y="203" text-anchor="middle">&gt;40%</text><rect class="b" x="75" y="285" width="210" height="60" rx="5"/><text class="t" x="180.0" y="308" text-anchor="middle">Rregulli PERC</text><rect class="b" x="885" y="285" width="270" height="75" rx="5"/><text class="s" x="1020.0" y="308" text-anchor="middle">HBPM nëse nuk ka</text><text class="s" x="1020.0" y="326" text-anchor="middle">kundërindikacion</text><rect class="p" x="20" y="410" width="190" height="60" rx="5"/><text class="t" x="115.0" y="433" text-anchor="middle">Pa EP</text><rect class="b" x="265" y="410" width="210" height="60" rx="5"/><text class="t" x="370.0" y="433" text-anchor="middle">D-dimer sasior</text><rect class="b" x="510" y="410" width="210" height="60" rx="5"/><text class="t" x="615.0" y="433" text-anchor="middle">D-dimer sasior</text><rect class="b" x="830" y="405" width="230" height="70" rx="5"/><text class="t" x="945.0" y="428" text-anchor="middle">Kërko imazheri</text><rect class="b" x="650" y="540" width="230" height="70" rx="5"/><text class="s" x="765.0" y="563" text-anchor="middle">Kreatinina/GFR</text><text class="s" x="765.0" y="581" text-anchor="middle">&lt;60 mL/min</text><rect class="b" x="930" y="540" width="230" height="70" rx="5"/><text class="s" x="1045.0" y="563" text-anchor="middle">Kreatinina/GFR</text><text class="s" x="1045.0" y="581" text-anchor="middle">&gt;59 mL/min</text><rect class="b" x="680" y="660" width="170" height="55" rx="5"/><text class="t" x="765.0" y="683" text-anchor="middle">V/Q</text><rect class="b" x="960" y="660" width="170" height="55" rx="5"/><text class="t" x="1045.0" y="683" text-anchor="middle">CTPA</text><rect class="b" x="520" y="780" width="150" height="50" rx="5"/><text class="t" x="595.0" y="803" text-anchor="middle">Normal</text><rect class="b" x="690" y="780" width="150" height="50" rx="5"/><text class="s" x="765.0" y="803" text-anchor="middle">Probabilitet i lartë</text><rect class="b" x="860" y="780" width="150" height="50" rx="5"/><text class="s" x="935.0" y="803" text-anchor="middle">Jodiagnostik</text><rect class="p" x="390" y="900" width="180" height="50" rx="5"/><text class="t" x="480.0" y="923" text-anchor="middle">Pa EP</text><rect class="g" x="700" y="900" width="180" height="50" rx="5"/><text class="t" x="790.0" y="923" text-anchor="middle">EP (+)</text><path class="l" d="M600,145 L180,180"/><path class="l" d="M600,145 L600,180"/><path class="l" d="M600,145 L1020,180"/><path class="l" d="M180,235 L180,285"/><path class="l" d="M180,345 L115,410"/><path class="l" d="M180,345 L370,410"/><path class="l" d="M600,235 L615,410"/><path class="l" d="M1020,235 L1020,285"/><path class="l" d="M1020,360 L945,405"/><path class="l" d="M370,470 L470,900"/><path class="l" d="M370,470 L900,405"/><path class="l" d="M615,470 L470,900"/><path class="l" d="M615,470 L900,405"/><path class="l" d="M945,475 L765,540"/><path class="l" d="M945,475 L1045,540"/><path class="l" d="M765,610 L765,660"/><path class="l" d="M1045,610 L1045,660"/><path class="l" d="M765,715 L595,780"/><path class="l" d="M765,715 L765,780"/><path class="l" d="M765,715 L935,780"/><path class="l" d="M595,830 L480,900"/><path class="l" d="M765,830 L790,900"/><path class="l" d="M935,830 L1045,660"/><path class="l" d="M1045,715 L790,900"/><path class="l" d="M1045,715 L480,900"/><text class="h" x="130" y="385" text-anchor="middle">−</text><text class="h" x="225" y="385" text-anchor="middle">+</text><text class="h" x="320" y="500" text-anchor="middle">−</text><text class="h" x="440" y="500" text-anchor="middle">+</text><text class="h" x="565" y="500" text-anchor="middle">−</text><text class="h" x="685" y="500" text-anchor="middle">+</text><text class="s" x="1000" y="760" text-anchor="middle">+/−</text></svg>